<svg xmlns="http://www.w3.org/2000/svg" viewBox="0 0 710.97 710.97"><title>crocinole-board</title><g id="Layer_2" data-name="Layer 2"><g id="Layer_1-2" data-name="Layer 1"><polygon points="210.72 704.97 6 500.25 6 210.72 210.72 6 500.25 6 704.97 210.72 704.97 500.25 500.25 704.97 210.72 704.97" style="fill:#fff"/><path d="M497.76,12,699,213.21V497.76L497.76,699H213.21L12,497.76V213.21L213.21,12H497.76m5-12H208.24l-3.51,3.51L3.51,204.72,0,208.24V502.73l3.51,3.51L204.72,707.46l3.51,3.51H502.73l3.51-3.51L707.46,506.25l3.51-3.51V208.24l-3.51-3.51L506.25,3.51,502.73,0Z" style="fill:#f15a24"/><polygon points="219.76 683.17 27.8 491.22 27.8 219.76 219.76 27.8 491.22 27.8 683.17 219.76 683.17 491.22 491.22 683.17 219.76 683.17" style="fill:#f15a24"/><line x1="11.74" y1="212.98" x2="28.07" y2="219.83" style="fill:none;stroke:#f15a24;stroke-linecap:square;stroke-miterlimit:10;stroke-width:12px"/><line x1="11.74" y1="212.98" x2="28.07" y2="219.83" style="fill:#fff"/><line x1="212.98" y1="11.74" x2="219.83" y2="27.54" style="fill:#fff;stroke:#f15a24;stroke-linecap:square;stroke-miterlimit:10;stroke-width:12px"/><line x1="497.99" y1="11.74" x2="491.14" y2="27.54" style="fill:#fff;stroke:#f15a24;stroke-linecap:square;stroke-miterlimit:10;stroke-width:12px"/><line x1="698.71" y1="212.98" x2="683.43" y2="219.83" style="fill:#fff;stroke:#f15a24;stroke-linecap:square;stroke-miterlimit:10;stroke-width:12px"/><line x1="682.91" y1="491.14" x2="699.24" y2="497.99" style="fill:#fff;stroke:#f15a24;stroke-linecap:square;stroke-miterlimit:10;stroke-width:12px"/><line x1="491.14" y1="682.91" x2="497.99" y2="698.71" style="fill:#fff;stroke:#f15a24;stroke-linecap:square;stroke-miterlimit:10;stroke-width:12px"/><line x1="219.83" y1="682.91" x2="212.98" y2="698.71" style="fill:#fff;stroke:#f15a24;stroke-linecap:square;stroke-miterlimit:10;stroke-width:12px"/><line x1="27.54" y1="491.14" x2="11.74" y2="497.99" style="fill:#fff;stroke:#f15a24;stroke-linecap:square;stroke-miterlimit:10;stroke-width:12px"/><circle cx="355.22" cy="355.22" r="87.45" style="fill:#fff;stroke:#f15a24;stroke-miterlimit:10;stroke-width:6px"/><path d="M148.49,557.71A287.47,287.47,0,0,1,66.1,355.49v-.26A287.44,287.44,0,0,1,148.75,153l44.19,44.19a225.38,225.38,0,0,0-64.35,158v.27a225.39,225.39,0,0,0,64.09,158Z" style="fill:#fff"/><path d="M148.78,157.27l40,40a228.33,228.33,0,0,0-63.15,158v.26a228.33,228.33,0,0,0,62.89,158l-40,40A285.41,285.41,0,0,1,69.1,355.49v-.26a285.42,285.42,0,0,1,79.68-198m0-8.53A291.46,291.46,0,0,0,63.1,355.22v.26A291.46,291.46,0,0,0,148.48,562l48.43-48.43a222.43,222.43,0,0,1-65.31-158.06v-.26a222.44,222.44,0,0,1,65.58-158.06l-48.43-48.43Z" style="fill:#f15a24"/><path d="M153,148.75A287.44,287.44,0,0,1,355.23,66.1h.26a287.47,287.47,0,0,1,202.23,82.39l-44.19,44.19a225.4,225.4,0,0,0-158-64.09h-.26a225.38,225.38,0,0,0-158,64.35Z" style="fill:#fff"/><path d="M355.49,69.1a285.41,285.41,0,0,1,197.95,79.43l-40,40a228.33,228.33,0,0,0-158-62.89h-.27a228.33,228.33,0,0,0-158,63.15l-40-40a285.42,285.42,0,0,1,198-79.68h.26m0-6h-.26a291.46,291.46,0,0,0-206.48,85.64l48.43,48.43a222.44,222.44,0,0,1,158.06-65.58h.26A222.43,222.43,0,0,1,513.54,196.9L562,148.48A291.46,291.46,0,0,0,355.49,63.1Z" style="fill:#f15a24"/><path d="M518,513.79a225.37,225.37,0,0,0,64.35-158.31v-.26a225.38,225.38,0,0,0-64.61-158.31L562,152.73a287.42,287.42,0,0,1,82.91,202.5v.26A287.42,287.42,0,0,1,562.22,558Z" style="fill:#fff"/><path d="M561.93,157a285.41,285.41,0,0,1,79.94,198.22v.26A285.41,285.41,0,0,1,562.19,553.7l-40-40a228.31,228.31,0,0,0,63.15-158.27v-.27A228.31,228.31,0,0,0,522,197L561.93,157m0-8.52L513.54,196.9l.26.26a222.44,222.44,0,0,1,65.58,158.06v.26a222.44,222.44,0,0,1-65.58,158.32l48.43,48.43a291.45,291.45,0,0,0,85.64-206.75v-.26A291.46,291.46,0,0,0,562,148.48Z" style="fill:#f15a24"/><path d="M355.22,644.87A287.41,287.41,0,0,1,152.73,562l44.19-44.18a225.38,225.38,0,0,0,158.31,64.61h.27A225.37,225.37,0,0,0,513.79,518L558,562.22a287.41,287.41,0,0,1-202.49,82.65Z" style="fill:#fff"/><path d="M197,522a228.32,228.32,0,0,0,158.27,63.4h.26a228.31,228.31,0,0,0,158.27-63.15l40,40a285.41,285.41,0,0,1-198.22,79.68h-.26A285.41,285.41,0,0,1,157,561.93L197,522m0-8.44L148.48,562a291.46,291.46,0,0,0,206.75,85.9h.26a291.45,291.45,0,0,0,206.75-85.64l-48.43-48.43a222.44,222.44,0,0,1-158.32,65.58h-.26a222.44,222.44,0,0,1-158.06-65.58l-.26-.26Z" style="fill:#f15a24"/><path d="M134.61,352.22A220.9,220.9,0,0,1,352.22,134.61v62.5A158.41,158.41,0,0,0,197.11,352.22Z" style="fill:#fff"/><path d="M349.22,137.68v56.52a161.42,161.42,0,0,0-155,155H137.68A217.91,217.91,0,0,1,349.22,137.68m6-6.09A223.9,223.9,0,0,0,131.59,355.22h68.49A155.41,155.41,0,0,1,355.22,200.07V131.59Z" style="fill:#f15a24"/><path d="M513.87,352.22A157.36,157.36,0,0,0,467.5,243.47l-.26-.26a157.39,157.39,0,0,0-109-46.11V134.6A219.43,219.43,0,0,1,511.43,199l.25.25a219.43,219.43,0,0,1,64.68,152.94Z" style="fill:#fff"/><path d="M361.22,137.66A216.41,216.41,0,0,1,509.3,201.15l.07.07.2.2A216.4,216.4,0,0,1,573.3,349.22H516.78a160.31,160.31,0,0,0-47.16-107.87l-.27-.27a160.32,160.32,0,0,0-108.13-46.9V137.66m-5.74-6.07h-.26v68.49h.26a154.41,154.41,0,0,1,109.63,45.25l.26.26A154.42,154.42,0,0,1,510.9,355.22h68.49a222.44,222.44,0,0,0-65.58-158.06l-.26-.26a222.43,222.43,0,0,0-158.06-65.32Z" style="fill:#f15a24"/><path d="M358.22,513.88A158.41,158.41,0,0,0,513.88,358.22h62.49A220.9,220.9,0,0,1,358.22,576.37Z" style="fill:#fff"/><path d="M573.31,361.22A217.91,217.91,0,0,1,361.22,573.31V516.8A161.41,161.41,0,0,0,516.8,361.22h56.51m6.07-6H510.9v.26A155.41,155.41,0,0,1,355.49,510.9h-.26v68.49h.26a223.9,223.9,0,0,0,223.9-223.9v-.26Z" style="fill:#f15a24"/><path d="M352.22,576.36a219.43,219.43,0,0,1-152.94-64.68l-.26-.26a219.42,219.42,0,0,1-64.42-153.2H197.1a157.38,157.38,0,0,0,46.1,109l.27.27a157.37,157.37,0,0,0,108.75,46.36Z" style="fill:#fff"/><path d="M194.17,361.22a160.32,160.32,0,0,0,46.91,108.14l.13.13.13.13a160.31,160.31,0,0,0,107.87,47.16V573.3a216.4,216.4,0,0,1-147.81-63.73l-.26-.26a216.42,216.42,0,0,1-63.49-148.08h56.51m5.9-6H131.59v.26A222.43,222.43,0,0,0,196.9,513.54l.26.26a222.44,222.44,0,0,0,158.06,65.58V510.9a154.42,154.42,0,0,1-109.63-45.52l-.26-.26a154.41,154.41,0,0,1-45.25-109.63v-.26Z" style="fill:#f15a24"/><path d="M355.22,507.9a151.41,151.41,0,0,1-105.64-42.8l44.2-44.2a89.29,89.29,0,0,0,61.43,24.51h.27a89.27,89.27,0,0,0,61.43-24.25l44.2,44.2A151.38,151.38,0,0,1,355.49,507.9Z" style="fill:#fff"/><path d="M293.88,425.06a92.26,92.26,0,0,0,61.35,23.36h.26a92.22,92.22,0,0,0,61.33-23.11l40,40a148.37,148.37,0,0,1-101.33,39.6h-.25A148.39,148.39,0,0,1,253.89,465l40-40m-.12-8.37-48.43,48.43.26.26A154.42,154.42,0,0,0,355.22,510.9h.26a154.41,154.41,0,0,0,109.89-45.52L417,417a86.34,86.34,0,0,1-61.46,25.46h-.26A86.34,86.34,0,0,1,294,417l-.26-.26Z" style="fill:#f15a24"/><path d="M421.16,416.92a89.27,89.27,0,0,0,24.25-61.43v-.26a89.3,89.3,0,0,0-24.51-61.44l44.2-44.2a151.4,151.4,0,0,1,42.8,105.64v.26a151.39,151.39,0,0,1-42.54,105.63Z" style="fill:#fff"/><path d="M465,253.89A148.38,148.38,0,0,1,504.9,355.22v.26a148.37,148.37,0,0,1-39.6,101.33l-40-40a92.22,92.22,0,0,0,23.11-61.33v-.28a92.25,92.25,0,0,0-23.36-61.33l40-40m.07-8.56-48.43,48.43.26.26a86.34,86.34,0,0,1,25.46,61.2v.26A86.34,86.34,0,0,1,417,417l48.43,48.43A154.41,154.41,0,0,0,510.9,355.49v-.26a154.42,154.42,0,0,0-45.52-109.63l-.26-.26Z" style="fill:#f15a24"/><path d="M249.86,245.61a151.4,151.4,0,0,1,105.37-42.54h.26a151.41,151.41,0,0,1,105.36,42.28l-44.21,44.21a89.3,89.3,0,0,0-61.16-24h-.26a89.3,89.3,0,0,0-61.17,24.25Z" style="fill:#fff"/><path d="M355.49,206.07a148.38,148.38,0,0,1,101.05,39.35l-40,40a92.26,92.26,0,0,0-61.05-22.86h-.28a92.25,92.25,0,0,0-61,23.11l-40-40a148.38,148.38,0,0,1,101.06-39.6h.26m0-6h-.26a154.42,154.42,0,0,0-109.63,45.52L294,294a86.34,86.34,0,0,1,61.2-25.46h.26a86.34,86.34,0,0,1,61.2,25.2l48.43-48.43a154.41,154.41,0,0,0-109.63-45.25Z" style="fill:#f15a24"/><path d="M245.35,460.85a151.4,151.4,0,0,1-42.28-105.36v-.26a151.4,151.4,0,0,1,42.54-105.37l44.2,44.2a89.29,89.29,0,0,0-24.25,61.16v.27a89.3,89.3,0,0,0,24,61.16Z" style="fill:#fff"/><path d="M245.68,254.16l40,40a92.26,92.26,0,0,0-23.11,61.07v.26a92.26,92.26,0,0,0,22.86,61.05l-40,40a148.38,148.38,0,0,1-39.35-101.05v-.25a148.39,148.39,0,0,1,39.6-101.07m-.08-8.57a154.42,154.42,0,0,0-45.52,109.63v.26a154.41,154.41,0,0,0,45.25,109.63l48.43-48.43a86.34,86.34,0,0,1-25.2-61.2v-.26A86.34,86.34,0,0,1,294,294l-48.43-48.43Z" style="fill:#f15a24"/><line x1="148.74" y1="148.74" x2="148.48" y2="148.48" style="fill:#fff;stroke:#f15a24;stroke-miterlimit:10;stroke-width:6px"/><line x1="63.1" y1="355.22" x2="62.84" y2="355.22" style="fill:#fff;stroke:#f15a24;stroke-miterlimit:10;stroke-width:6px"/><path d="M355.49,337a18.33,18.33,0,0,1,7.06,1.45,18.44,18.44,0,0,1,0,34.07,17.84,17.84,0,0,1-14.11,0,18.44,18.44,0,0,1,0-34.07,18.33,18.33,0,0,1,7.06-1.45m0-12a30.33,30.33,0,0,0-11.65,2.37,30.44,30.44,0,0,0,0,56.24,29.83,29.83,0,0,0,23.3,0,30.44,30.44,0,0,0,0-56.24A30.32,30.32,0,0,0,355.49,325Z" style="fill:#f15a24"/><path d="M322.13,285.17a10.22,10.22,0,1,1,9.44-6.31,10.16,10.16,0,0,1-9.44,6.31Z" style="fill:#fff"/><path d="M322.13,270.74a4.22,4.22,0,1,1-3.9,2.6,4.2,4.2,0,0,1,3.9-2.6m0-12a16.22,16.22,0,1,0,6.2,1.24,16.17,16.17,0,0,0-6.2-1.24Z" style="fill:#f15a24"/><path d="M388.85,285.17a10.22,10.22,0,1,1,3.91-.78,10.19,10.19,0,0,1-3.91.78Z" style="fill:#fff"/><path d="M388.84,270.74a4.22,4.22,0,1,1-1.61.32,4.22,4.22,0,0,1,1.61-.32m0-12a16.22,16.22,0,1,0,15,10,16.13,16.13,0,0,0-15-10Z" style="fill:#f15a24"/><path d="M436,332.34a10.22,10.22,0,1,1,9.44-6.31,10.16,10.16,0,0,1-9.44,6.31Z" style="fill:#fff"/><path d="M436,317.91a4.22,4.22,0,1,1-3.9,2.6,4.2,4.2,0,0,1,3.9-2.6m0-12a16.22,16.22,0,1,0,6.2,1.24,16.17,16.17,0,0,0-6.2-1.24Z" style="fill:#f15a24"/><path d="M436,399.06a10.22,10.22,0,1,1,3.91-.78,10.19,10.19,0,0,1-3.91.78Z" style="fill:#fff"/><path d="M436,384.63a4.22,4.22,0,1,1-1.61.32,4.22,4.22,0,0,1,1.61-.32m0-12a16.22,16.22,0,1,0,15,10,16.13,16.13,0,0,0-15-10Z" style="fill:#f15a24"/><path d="M388.84,446.24a10.22,10.22,0,1,1,9.44-6.31,10.18,10.18,0,0,1-9.44,6.31Z" style="fill:#fff"/><path d="M388.85,431.8a4.22,4.22,0,1,1-3.9,2.6,4.2,4.2,0,0,1,3.9-2.6m0-12A16.22,16.22,0,1,0,395,421a16.17,16.17,0,0,0-6.2-1.24Z" style="fill:#f15a24"/><path d="M322.13,446.24a10.22,10.22,0,1,1,3.91-.78,10.19,10.19,0,0,1-3.91.78Z" style="fill:#fff"/><path d="M322.13,431.8a4.22,4.22,0,1,1-1.61.32,4.22,4.22,0,0,1,1.61-.32m0-12a16.22,16.22,0,1,0,15,10,16.13,16.13,0,0,0-15-10Z" style="fill:#f15a24"/><path d="M275,399.06a10.22,10.22,0,1,1,9.44-6.31,10.18,10.18,0,0,1-9.44,6.31Z" style="fill:#fff"/><path d="M275,384.63a4.22,4.22,0,1,1-3.9,2.6,4.2,4.2,0,0,1,3.9-2.6m0-12a16.22,16.22,0,1,0,6.2,1.24,16.17,16.17,0,0,0-6.2-1.24Z" style="fill:#f15a24"/><path d="M275,332.34a10.22,10.22,0,1,1,3.91-.78,10.19,10.19,0,0,1-3.91.78Z" style="fill:#fff"/><path d="M275,317.91a4.22,4.22,0,1,1-1.61.32,4.22,4.22,0,0,1,1.61-.32m0-12a16.22,16.22,0,1,0,15,10,16.13,16.13,0,0,0-15-10Z" style="fill:#f15a24"/></g></g></svg>